<svg xmlns="http://www.w3.org/2000/svg" viewBox="0 0 800 500" fill="none">
  <rect width="800" height="500" fill="#f4f6f9"/>
  <rect x="0" y="0" width="800" height="56" fill="#ffffff" stroke="#dde3ec"/>
  <text x="40" y="36" font-family="system-ui" font-size="18" font-weight="700" fill="#1a3a6b">YRU Service</text>
  <rect x="24" y="80" width="240" height="396" rx="10" fill="#ffffff" stroke="#dde3ec"/>
  <rect x="48" y="108" width="192" height="40" rx="6" fill="#e8eef6"/>
  <rect x="48" y="164" width="192" height="32" rx="6" fill="#f4f6f9"/>
  <rect x="48" y="208" width="192" height="32" rx="6" fill="#f4f6f9"/>
  <rect x="48" y="252" width="192" height="32" rx="6" fill="#1a3a6b" opacity="0.1"/>
  <rect x="288" y="80" width="488" height="396" rx="10" fill="#ffffff" stroke="#dde3ec"/>
  <rect x="312" y="108" width="200" height="16" rx="4" fill="#1a3a6b"/>
  <rect x="312" y="140" width="440" height="12" rx="3" fill="#dde3ec"/>
  <rect x="312" y="164" width="380" height="12" rx="3" fill="#dde3ec"/>
  <rect x="312" y="220" width="210" height="120" rx="8" fill="#e8eef6"/>
  <rect x="542" y="220" width="210" height="120" rx="8" fill="#e8eef6"/>
  <rect x="312" y="364" width="440" height="88" rx="8" fill="#1a3a6b" opacity="0.08"/>
  <text x="532" y="418" text-anchor="middle" font-family="system-ui" font-size="13" fill="#3d6ba8">Service Request Portal</text>
</svg>
